<svg xmlns="http://www.w3.org/2000/svg" width="1130.104" height="960.882" viewBox="0 0 1130.104 960.882">
  <g id="그룹_26" data-name="그룹 26" transform="translate(-926.896 -470.943)">
    <path id="패스_20" data-name="패스 20" d="M853,107c44-75,112-92,172-92,68,0,129.656,48.125,181.13,140.957C1286,299.995,1407,265.995,1452,236.995c-151,113-152.751,224.817-122,291,46,99,181,191,86,328-72.268,104.218-371.772,146.48-528.386-33.26" transform="translate(590 470.948)" fill="none" stroke="#000" stroke-linecap="round" stroke-linejoin="round" stroke-width="30"/>
    <path id="패스_21" data-name="패스 21" d="M904,427.995c70,39,145.859,130.126,141,200-5.419,77.93-62,163-135,135" transform="translate(590 470.948)" fill="none" stroke="#000" stroke-linecap="round" stroke-linejoin="round" stroke-width="30"/>
    <path id="패스_22" data-name="패스 22" d="M711,737.995s-85.778,7.073-98.462,45.8S631,845.552,631,845.552" transform="translate(590 470.948)" fill="none" stroke="#000" stroke-linecap="round" stroke-linejoin="round" stroke-width="30"/>
    <path id="패스_23" data-name="패스 23" d="M685,658.995c-45,52-80.782,77.182-155.64,52-43.886-14.763-37.2-64.961,15.64-52,53,13,64.5-14.522,84.435-35" transform="translate(590 470.948)" fill="none" stroke="#000" stroke-linecap="round" stroke-linejoin="round" stroke-width="30"/>
    <path id="패스_24" data-name="패스 24" d="M593,871.553s-103.453-32.174-103,26C490.3,936.091,527.818,940,583.191,940c136,0,338.809-.286,338.809-.286" transform="translate(590 470.948)" fill="none" stroke="#000" stroke-linecap="round" stroke-linejoin="round" stroke-width="30"/>
    <path id="패스_25" data-name="패스 25" d="M932.17,118.135S966.054,80,1018,80s86.723,38.14,86.723,38.14" transform="translate(590 470.948)" fill="none" stroke="#000" stroke-linecap="round" stroke-linejoin="round" stroke-width="30"/>
    <path id="패스_26" data-name="패스 26" d="M959,151.995s29-23,61-23c30,0,57,23,57,23" transform="translate(590 470.948)" fill="none" stroke="#000" stroke-linecap="round" stroke-linejoin="round" stroke-width="30"/>
    <path id="패스_27" data-name="패스 27" d="M1387.753,713.8s20.374,46.773-1.451,93.912-71.046,62.673-71.046,62.673" transform="translate(590 470.948)" fill="none" stroke="#000" stroke-linecap="round" stroke-linejoin="round" stroke-width="30"/>
    <path id="패스_28" data-name="패스 28" d="M1345.754,723.925s8.687,35.98-4.757,65.018c-12.6,27.224-44.82,42.062-44.82,42.062" transform="translate(590 470.948)" fill="none" stroke="#000" stroke-linecap="round" stroke-linejoin="round" stroke-width="30"/>
    <path id="패스_29" data-name="패스 29" d="M858.616,516.616C964.708,563.647,957.6,627.656,913.31,711" transform="translate(590 470.948)" fill="none" stroke="#000" stroke-linecap="round" stroke-linejoin="round" stroke-width="30"/>
    <path id="패스_30" data-name="패스 30" d="M646.3,174.15s57.454-52.994,95.022-33.929C779.79,159.743,760.409,237,760.409,237" transform="translate(590 470.948)" fill="none" stroke="#000" stroke-linecap="round" stroke-width="30"/>
    <path id="패스_31" data-name="패스 31" d="M458.7,493.505c19.386,39.726,44.167,89.007,58.414,114.474,62.3-20.788,178.352-82.287,207.51-102.324s153.724-117.47,172.057-144.67l-4.086-12.246c3.722-58.359-3.269-113.025-40.418-168.015S690.726,34.379,537.7,122.333c-39.206,21.514-68.6,59.786-92.313,93C473.534,236.509,559.92,289,567.98,348.439S553.515,453.532,458.7,493.505Z" transform="translate(590 470.948)" fill="none" stroke="#000" stroke-linecap="round" stroke-linejoin="round" stroke-width="30"/>
    <path id="패스_32" data-name="패스 32" d="M336.9,307.419c38.654,22.7,130.88,72.173,243.572-32.105,14.07-.173,31.842-4.689,41.13-19.756,7.962-12.916,9.114-34.416-5.737-49.4-7.745-9.1-21.25-10.052-28.974-11.534C577.224,189.375,516.193,158.881,475,145.5c-8.137-2.37-17.8,7.633-23.049,13.906S336.9,307.419,336.9,307.419" transform="translate(590 470.948)"/>
    <path id="패스_33" data-name="패스 33" d="M887.285,338.811S769.918,446.428,713.818,482.232c-68.4,43.656-119.753,71.185-207.237,103.016" transform="translate(590 470.948)" fill="none" stroke="#000" stroke-width="6"/>
    <path id="패스_34" data-name="패스 34" d="M619.739,224.431a32.827,32.827,0,1,1-41.528-20.75,32.826,32.826,0,0,1,41.528,20.75" transform="translate(590 470.948)" fill="#f4d53d"/>
    <line id="선_1" data-name="선 1" x1="21.172" y2="28.315" transform="translate(958.914 744.285)" fill="none" stroke="#fff" stroke-linecap="round" stroke-linejoin="round" stroke-width="16"/>
    <line id="선_2" data-name="선 2" x1="21.172" y2="28.315" transform="translate(984.914 749.285)" fill="none" stroke="#fff" stroke-linecap="round" stroke-linejoin="round" stroke-width="16"/>
    <path id="패스_35" data-name="패스 35" d="M666.407,190.187S709.892,153.963,730,166.995c17.372,11.26,5.764,65.291,5.764,65.291Z" transform="translate(590 470.948)" fill="#ffb03e"/>
  </g>
</svg>
