<svg xmlns="http://www.w3.org/2000/svg" width="472.69" height="472.69" viewBox="0 0 472.69 472.69">
  <g id="그룹_27" data-name="그룹 27" transform="translate(-590 -946.13)">
    <path id="패스_1" data-name="패스 1" d="M236.345,514.393c-108.875,0-197.135,88.26-197.135,197.135s88.26,197.135,197.135,197.135S433.48,820.4,433.48,711.528,345.22,514.393,236.345,514.393m0,368.445a171.311,171.311,0,1,1,171.31-171.31,171.31,171.31,0,0,1-171.31,171.31" transform="translate(590 470.948)"/>
    <path id="패스_2" data-name="패스 2" d="M236.345,475.183C105.815,475.183,0,581,0,711.528S105.815,947.873,236.345,947.873,472.69,842.058,472.69,711.528,366.875,475.183,236.345,475.183m0,449.725c-117.846,0-213.38-95.533-213.38-213.38s95.534-213.38,213.38-213.38,213.38,95.534,213.38,213.38-95.533,213.38-213.38,213.38" transform="translate(590 470.948)"/>
    <path id="패스_3" data-name="패스 3" d="M236.345,673.772A37.756,37.756,0,1,0,274.1,711.528a37.756,37.756,0,0,0-37.756-37.756m0,52.851a15.1,15.1,0,1,1,15.1-15.095,15.095,15.095,0,0,1-15.1,15.095" transform="translate(590 470.948)"/>
    <rect id="사각형_1" data-name="사각형 1" width="15.107" height="156.358" transform="translate(818.568 999.314)"/>
    <rect id="사각형_2" data-name="사각형 2" width="15.107" height="156.358" transform="translate(818.945 1208.17)"/>
    <path id="패스_4" data-name="패스 4" d="M178.137,549.954c32.7-10.973,50.182-2.621,50.43,27.923V525.926Z" transform="translate(590 470.948)"/>
    <path id="패스_5" data-name="패스 5" d="M294.28,549.857c-32.7-10.973-50.357-2.524-50.6,28.019v-51.95Z" transform="translate(590 470.948)"/>
    <path id="패스_6" data-name="패스 6" d="M178.58,873.267c32.7,10.973,50.117,2.686,50.365-27.857v51.95Z" transform="translate(590 470.948)"/>
    <path id="패스_7" data-name="패스 7" d="M294.657,873.064c-32.7,10.973-50.357,2.8-50.605-27.745v51.95Z" transform="translate(590 470.948)"/>
    <rect id="사각형_3" data-name="사각형 3" width="15.107" height="156.358" transform="translate(691.265 1058.531) rotate(-45)"/>
    <rect id="사각형_4" data-name="사각형 4" width="15.107" height="156.358" transform="translate(839.215 1205.947) rotate(-45)"/>
    <path id="패스_8" data-name="패스 8" d="M80.87,638.508c15.363-30.881,33.631-37.337,55.4-15.915L99.539,585.857Z" transform="translate(590 470.948)"/>
    <path id="패스_9" data-name="패스 9" d="M162.926,556.314c-30.881,15.363-37.393,33.823-15.971,55.6l-36.734-36.735Z" transform="translate(590 470.948)"/>
    <path id="패스_10" data-name="패스 10" d="M309.8,866.812c30.881-15.363,37.337-33.539,15.915-55.312l36.735,36.735Z" transform="translate(590 470.948)"/>
    <path id="패스_11" data-name="패스 11" d="M391.735,784.589c-15.363,30.881-33.629,37.586-55.4,16.164l36.735,36.735Z" transform="translate(590 470.948)"/>
    <rect id="사각형_5" data-name="사각형 5" width="156.358" height="15.107" transform="translate(643.15 1175.223)"/>
    <rect id="사각형_6" data-name="사각형 6" width="156.358" height="15.107" transform="translate(852.005 1174.844)"/>
    <path id="패스_12" data-name="패스 12" d="M74.737,769.812c-10.973-32.7-2.621-50.182,27.923-50.43H50.709Z" transform="translate(590 470.948)"/>
    <path id="패스_13" data-name="패스 13" d="M74.64,653.67c-10.973,32.7-2.524,50.357,28.019,50.605H50.709Z" transform="translate(590 470.948)"/>
    <path id="패스_14" data-name="패스 14" d="M398.051,769.369c10.973-32.7,2.686-50.117-27.857-50.365h51.95Z" transform="translate(590 470.948)"/>
    <path id="패스_15" data-name="패스 15" d="M397.847,653.292c10.973,32.7,2.8,50.357-27.745,50.6h51.95Z" transform="translate(590 470.948)"/>
    <rect id="사각형_7" data-name="사각형 7" width="156.358" height="15.107" transform="translate(691.685 1306.95) rotate(-45)"/>
    <rect id="사각형_8" data-name="사각형 8" width="156.358" height="15.107" transform="translate(839.1 1159) rotate(-45)"/>
    <path id="패스_16" data-name="패스 16" d="M163.291,867.08c-30.881-15.363-37.337-33.631-15.915-55.4l-36.735,36.735Z" transform="translate(590 470.948)"/>
    <path id="패스_17" data-name="패스 17" d="M81.1,785.023c15.363,30.882,33.823,37.394,55.6,15.972L99.958,837.729Z" transform="translate(590 470.948)"/>
    <path id="패스_18" data-name="패스 18" d="M391.6,638.15c-15.363-30.881-33.539-37.337-55.312-15.915L373.018,585.5Z" transform="translate(590 470.948)"/>
    <path id="패스_19" data-name="패스 19" d="M309.372,556.215c30.881,15.363,37.586,33.629,16.164,55.4l36.735-36.735Z" transform="translate(590 470.948)"/>
  </g>
</svg>
