<svg xmlns="http://www.w3.org/2000/svg" width="1467" height="1224.115" viewBox="0 0 1467 1224.115">
  <g id="그룹_29" data-name="그룹 29" transform="translate(-590 -470.943)">
    <g id="그룹_28" data-name="그룹 28">
      <g id="그룹_27" data-name="그룹 27">
        <path id="패스_1" data-name="패스 1" d="M236.345,514.393c-108.875,0-197.135,88.26-197.135,197.135s88.26,197.135,197.135,197.135S433.48,820.4,433.48,711.528,345.22,514.393,236.345,514.393m0,368.445a171.311,171.311,0,1,1,171.31-171.31,171.31,171.31,0,0,1-171.31,171.31" transform="translate(590 470.948)"/>
        <path id="패스_2" data-name="패스 2" d="M236.345,475.183C105.815,475.183,0,581,0,711.528S105.815,947.873,236.345,947.873,472.69,842.058,472.69,711.528,366.875,475.183,236.345,475.183m0,449.725c-117.846,0-213.38-95.533-213.38-213.38s95.534-213.38,213.38-213.38,213.38,95.534,213.38,213.38-95.533,213.38-213.38,213.38" transform="translate(590 470.948)"/>
        <path id="패스_3" data-name="패스 3" d="M236.345,673.772A37.756,37.756,0,1,0,274.1,711.528a37.756,37.756,0,0,0-37.756-37.756m0,52.851a15.1,15.1,0,1,1,15.1-15.095,15.095,15.095,0,0,1-15.1,15.095" transform="translate(590 470.948)"/>
        <rect id="사각형_1" data-name="사각형 1" width="15.107" height="156.358" transform="translate(818.568 999.314)"/>
        <rect id="사각형_2" data-name="사각형 2" width="15.107" height="156.358" transform="translate(818.945 1208.17)"/>
        <path id="패스_4" data-name="패스 4" d="M178.137,549.954c32.7-10.973,50.182-2.621,50.43,27.923V525.926Z" transform="translate(590 470.948)"/>
        <path id="패스_5" data-name="패스 5" d="M294.28,549.857c-32.7-10.973-50.357-2.524-50.6,28.019v-51.95Z" transform="translate(590 470.948)"/>
        <path id="패스_6" data-name="패스 6" d="M178.58,873.267c32.7,10.973,50.117,2.686,50.365-27.857v51.95Z" transform="translate(590 470.948)"/>
        <path id="패스_7" data-name="패스 7" d="M294.657,873.064c-32.7,10.973-50.357,2.8-50.605-27.745v51.95Z" transform="translate(590 470.948)"/>
        <rect id="사각형_3" data-name="사각형 3" width="15.107" height="156.358" transform="translate(691.265 1058.531) rotate(-45)"/>
        <rect id="사각형_4" data-name="사각형 4" width="15.107" height="156.358" transform="translate(839.215 1205.947) rotate(-45)"/>
        <path id="패스_8" data-name="패스 8" d="M80.87,638.508c15.363-30.881,33.631-37.337,55.4-15.915L99.539,585.857Z" transform="translate(590 470.948)"/>
        <path id="패스_9" data-name="패스 9" d="M162.926,556.314c-30.881,15.363-37.393,33.823-15.971,55.6l-36.734-36.735Z" transform="translate(590 470.948)"/>
        <path id="패스_10" data-name="패스 10" d="M309.8,866.812c30.881-15.363,37.337-33.539,15.915-55.312l36.735,36.735Z" transform="translate(590 470.948)"/>
        <path id="패스_11" data-name="패스 11" d="M391.735,784.589c-15.363,30.881-33.629,37.586-55.4,16.164l36.735,36.735Z" transform="translate(590 470.948)"/>
        <rect id="사각형_5" data-name="사각형 5" width="156.358" height="15.107" transform="translate(643.15 1175.223)"/>
        <rect id="사각형_6" data-name="사각형 6" width="156.358" height="15.107" transform="translate(852.005 1174.844)"/>
        <path id="패스_12" data-name="패스 12" d="M74.737,769.812c-10.973-32.7-2.621-50.182,27.923-50.43H50.709Z" transform="translate(590 470.948)"/>
        <path id="패스_13" data-name="패스 13" d="M74.64,653.67c-10.973,32.7-2.524,50.357,28.019,50.605H50.709Z" transform="translate(590 470.948)"/>
        <path id="패스_14" data-name="패스 14" d="M398.051,769.369c10.973-32.7,2.686-50.117-27.857-50.365h51.95Z" transform="translate(590 470.948)"/>
        <path id="패스_15" data-name="패스 15" d="M397.847,653.292c10.973,32.7,2.8,50.357-27.745,50.6h51.95Z" transform="translate(590 470.948)"/>
        <rect id="사각형_7" data-name="사각형 7" width="156.358" height="15.107" transform="translate(691.685 1306.95) rotate(-45)"/>
        <rect id="사각형_8" data-name="사각형 8" width="156.358" height="15.107" transform="translate(839.1 1159) rotate(-45)"/>
        <path id="패스_16" data-name="패스 16" d="M163.291,867.08c-30.881-15.363-37.337-33.631-15.915-55.4l-36.735,36.735Z" transform="translate(590 470.948)"/>
        <path id="패스_17" data-name="패스 17" d="M81.1,785.023c15.363,30.882,33.823,37.394,55.6,15.972L99.958,837.729Z" transform="translate(590 470.948)"/>
        <path id="패스_18" data-name="패스 18" d="M391.6,638.15c-15.363-30.881-33.539-37.337-55.312-15.915L373.018,585.5Z" transform="translate(590 470.948)"/>
        <path id="패스_19" data-name="패스 19" d="M309.372,556.215c30.881,15.363,37.586,33.629,16.164,55.4l36.735-36.735Z" transform="translate(590 470.948)"/>
      </g>
      <g id="그룹_26" data-name="그룹 26">
        <path id="패스_20" data-name="패스 20" d="M853,107c44-75,112-92,172-92,68,0,129.656,48.125,181.13,140.957C1286,299.995,1407,265.995,1452,236.995c-151,113-152.751,224.817-122,291,46,99,181,191,86,328-72.268,104.218-371.772,146.48-528.386-33.26" transform="translate(590 470.948)" fill="none" stroke="#000" stroke-linecap="round" stroke-linejoin="round" stroke-width="30"/>
        <path id="패스_21" data-name="패스 21" d="M904,427.995c70,39,145.859,130.126,141,200-5.419,77.93-62,163-135,135" transform="translate(590 470.948)" fill="none" stroke="#000" stroke-linecap="round" stroke-linejoin="round" stroke-width="30"/>
        <path id="패스_22" data-name="패스 22" d="M711,737.995s-85.778,7.073-98.462,45.8S631,845.552,631,845.552" transform="translate(590 470.948)" fill="none" stroke="#000" stroke-linecap="round" stroke-linejoin="round" stroke-width="30"/>
        <path id="패스_23" data-name="패스 23" d="M685,658.995c-45,52-80.782,77.182-155.64,52-43.886-14.763-37.2-64.961,15.64-52,53,13,64.5-14.522,84.435-35" transform="translate(590 470.948)" fill="none" stroke="#000" stroke-linecap="round" stroke-linejoin="round" stroke-width="30"/>
        <path id="패스_24" data-name="패스 24" d="M593,871.553s-103.453-32.174-103,26C490.3,936.091,527.818,940,583.191,940c136,0,338.809-.286,338.809-.286" transform="translate(590 470.948)" fill="none" stroke="#000" stroke-linecap="round" stroke-linejoin="round" stroke-width="30"/>
        <path id="패스_25" data-name="패스 25" d="M932.17,118.135S966.054,80,1018,80s86.723,38.14,86.723,38.14" transform="translate(590 470.948)" fill="none" stroke="#000" stroke-linecap="round" stroke-linejoin="round" stroke-width="30"/>
        <path id="패스_26" data-name="패스 26" d="M959,151.995s29-23,61-23c30,0,57,23,57,23" transform="translate(590 470.948)" fill="none" stroke="#000" stroke-linecap="round" stroke-linejoin="round" stroke-width="30"/>
        <path id="패스_27" data-name="패스 27" d="M1387.753,713.8s20.374,46.773-1.451,93.912-71.046,62.673-71.046,62.673" transform="translate(590 470.948)" fill="none" stroke="#000" stroke-linecap="round" stroke-linejoin="round" stroke-width="30"/>
        <path id="패스_28" data-name="패스 28" d="M1345.754,723.925s8.687,35.98-4.757,65.018c-12.6,27.224-44.82,42.062-44.82,42.062" transform="translate(590 470.948)" fill="none" stroke="#000" stroke-linecap="round" stroke-linejoin="round" stroke-width="30"/>
        <path id="패스_29" data-name="패스 29" d="M858.616,516.616C964.708,563.647,957.6,627.656,913.31,711" transform="translate(590 470.948)" fill="none" stroke="#000" stroke-linecap="round" stroke-linejoin="round" stroke-width="30"/>
        <path id="패스_30" data-name="패스 30" d="M646.3,174.15s57.454-52.994,95.022-33.929C779.79,159.743,760.409,237,760.409,237" transform="translate(590 470.948)" fill="none" stroke="#000" stroke-linecap="round" stroke-width="30"/>
        <path id="패스_31" data-name="패스 31" d="M458.7,493.505c19.386,39.726,44.167,89.007,58.414,114.474,62.3-20.788,178.352-82.287,207.51-102.324s153.724-117.47,172.057-144.67l-4.086-12.246c3.722-58.359-3.269-113.025-40.418-168.015S690.726,34.379,537.7,122.333c-39.206,21.514-68.6,59.786-92.313,93C473.534,236.509,559.92,289,567.98,348.439S553.515,453.532,458.7,493.505Z" transform="translate(590 470.948)" fill="none" stroke="#000" stroke-linecap="round" stroke-linejoin="round" stroke-width="30"/>
        <path id="패스_32" data-name="패스 32" d="M336.9,307.419c38.654,22.7,130.88,72.173,243.572-32.105,14.07-.173,31.842-4.689,41.13-19.756,7.962-12.916,9.114-34.416-5.737-49.4-7.745-9.1-21.25-10.052-28.974-11.534C577.224,189.375,516.193,158.881,475,145.5c-8.137-2.37-17.8,7.633-23.049,13.906S336.9,307.419,336.9,307.419" transform="translate(590 470.948)"/>
        <path id="패스_33" data-name="패스 33" d="M887.285,338.811S769.918,446.428,713.818,482.232c-68.4,43.656-119.753,71.185-207.237,103.016" transform="translate(590 470.948)" fill="none" stroke="#000" stroke-width="6"/>
        <path id="패스_34" data-name="패스 34" d="M619.739,224.431a32.827,32.827,0,1,1-41.528-20.75,32.826,32.826,0,0,1,41.528,20.75" transform="translate(590 470.948)" fill="#f4d53d"/>
        <line id="선_1" data-name="선 1" x1="21.172" y2="28.315" transform="translate(958.914 744.285)" fill="none" stroke="#fff" stroke-linecap="round" stroke-linejoin="round" stroke-width="16"/>
        <line id="선_2" data-name="선 2" x1="21.172" y2="28.315" transform="translate(984.914 749.285)" fill="none" stroke="#fff" stroke-linecap="round" stroke-linejoin="round" stroke-width="16"/>
        <path id="패스_35" data-name="패스 35" d="M666.407,190.187S709.892,153.963,730,166.995c17.372,11.26,5.764,65.291,5.764,65.291Z" transform="translate(590 470.948)" fill="#ffb03e"/>
      </g>
    </g>
    <g id="그룹_25" data-name="그룹 25">
      <path id="패스_36" data-name="패스 36" d="M1065.76,1073.853c-9.625-22.5-27.942-27.77-45.893-19.293-8.112,3.83-22.427,14.77-15.268,34.142,4.76,12.881,19.828,18.683,32.507,13.41a17.408,17.408,0,0,0,9.388-22.755,12.186,12.186,0,0,0-15.93-6.571,8.529,8.529,0,0,0-4.6,11.15" transform="translate(590 470.948)" fill="none" stroke="#ffb03e" stroke-linecap="round" stroke-width="15"/>
      <path id="패스_37" data-name="패스 37" d="M513.332,1075.016a63.74,63.74,0,0,0-26.968-26.855q-17.549-9.266-41.326-9.267h-58.8v155.58h59.254q23.626,0,41.061-9.344a64.234,64.234,0,0,0,26.816-26.854q9.381-17.509,9.382-41.592t-9.42-41.668m-36.046,67.117q-4.293,9.42-12.535,13.483t-20.777,4.065H427.185v-85.994h15.726q13.065,0,21.5,3.988t12.8,13.484q4.367,9.5,4.368,25.525t-4.292,25.449" transform="translate(590 470.948)" fill="#ffb03e"/>
      <path id="패스_38" data-name="패스 38" d="M540.773,1191.014a32.563,32.563,0,0,1-13.33-13.551,46.711,46.711,0,0,1,0-40.456,32.562,32.562,0,0,1,13.33-13.551q8.726-4.826,20.618-4.825t20.6,4.825a32.608,32.608,0,0,1,13.307,13.551,46.721,46.721,0,0,1,0,40.456,32.609,32.609,0,0,1-13.307,13.551q-8.7,4.824-20.6,4.826t-20.618-4.826m27.053-16.89a15.033,15.033,0,0,0,4.046-6.75,38.317,38.317,0,0,0,0-20.619,15.039,15.039,0,0,0-4.046-6.75,9.091,9.091,0,0,0-6.288-2.364,9.7,9.7,0,0,0-6.483,2.315,14.412,14.412,0,0,0-4.167,6.727,38.042,38.042,0,0,0,0,20.714,14.748,14.748,0,0,0,4.167,6.727,9.575,9.575,0,0,0,6.483,2.364,9.086,9.086,0,0,0,6.288-2.364" transform="translate(590 470.948)"/>
      <path id="패스_39" data-name="패스 39" d="M621.985,1191.014a32.572,32.572,0,0,1-13.331-13.551,46.72,46.72,0,0,1,0-40.456,32.571,32.571,0,0,1,13.331-13.551q8.726-4.826,20.618-4.825t20.595,4.825a32.608,32.608,0,0,1,13.307,13.551,46.72,46.72,0,0,1,0,40.456,32.609,32.609,0,0,1-13.307,13.551q-8.7,4.824-20.595,4.826t-20.618-4.826m27.053-16.89a15.042,15.042,0,0,0,4.046-6.75,38.316,38.316,0,0,0,0-20.619,15.047,15.047,0,0,0-4.046-6.75,9.091,9.091,0,0,0-6.288-2.364,9.7,9.7,0,0,0-6.483,2.315,14.412,14.412,0,0,0-4.167,6.727,38.017,38.017,0,0,0,0,20.714,14.748,14.748,0,0,0,4.167,6.727,9.574,9.574,0,0,0,6.483,2.364,9.086,9.086,0,0,0,6.288-2.364" transform="translate(590 470.948)"/>
      <path id="패스_40" data-name="패스 40" d="M686.038,1119.6h25.3v14.087h.78a24.341,24.341,0,0,1,3.8-8.482,15.68,15.68,0,0,1,5.85-4.971,17.062,17.062,0,0,1,7.457-1.609,26.546,26.546,0,0,1,6.775.926v22.373a26.372,26.372,0,0,0-4.631-.95,40.5,40.5,0,0,0-5.166-.366,14.666,14.666,0,0,0-7.214,1.779,12.694,12.694,0,0,0-5.045,5.094,15.291,15.291,0,0,0-1.828,7.507v39.481H686.038Z" transform="translate(590 470.948)"/>
      <path id="패스_41" data-name="패스 41" d="M777.489,1164.107q-4.68.244-7.409.536a9.021,9.021,0,0,0-5.557,2.486,7.084,7.084,0,0,0-2.1,5.216,6.365,6.365,0,0,0,1.048,3.68,6.277,6.277,0,0,0,2.925,2.291,11.331,11.331,0,0,0,4.265.756,13.894,13.894,0,0,0,6.166-1.39,11.455,11.455,0,0,0,4.557-3.9,10.2,10.2,0,0,0,1.706-5.873l-.2-24.664a5.989,5.989,0,0,0-1.072-3.559,6.473,6.473,0,0,0-2.974-2.267,11.991,11.991,0,0,0-4.435-.755,12.979,12.979,0,0,0-4.728.78,7.824,7.824,0,0,0-3.29,2.364,7.487,7.487,0,0,0-1.584,3.875H740.737a25.271,25.271,0,0,1,4.509-12.7,26.629,26.629,0,0,1,11.454-9.042q7.482-3.315,18.108-3.315a47.65,47.65,0,0,1,17.962,3.144,27.328,27.328,0,0,1,11.99,8.773,20.725,20.725,0,0,1,4.216,12.748v51.179h-24.42v-10.528h-.585a20.643,20.643,0,0,1-12.55,10.479,30.689,30.689,0,0,1-9.14,1.268,31.414,31.414,0,0,1-12.746-2.413,18.837,18.837,0,0,1-8.579-7.336,22.464,22.464,0,0,1-3.095-12.186q0-11.648,7.555-17.328t20.082-6.458q2.778-.146,7.385-.342t8.018-.34l3.07-.1.1,14.623q-1.9.048-6.58.292" transform="translate(590 470.948)"/>
      <path id="패스_42" data-name="패스 42" d="M813.951,1119.6h24.761v14.087h.78a21.458,21.458,0,0,1,7.993-11.04,22.439,22.439,0,0,1,13.357-4.022,24.174,24.174,0,0,1,9.6,1.876,18.8,18.8,0,0,1,7.214,5.289,17,17,0,0,1,3.656,7.9h.781a19.388,19.388,0,0,1,4.581-7.945,21.6,21.6,0,0,1,7.9-5.289,27.386,27.386,0,0,1,10.139-1.828,25.244,25.244,0,0,1,12.576,3.095,21.073,21.073,0,0,1,8.506,8.871,28.651,28.651,0,0,1,3,13.38v50.5H902.761v-44.015q0-5.069-2.584-7.945a8.847,8.847,0,0,0-6.921-2.876,9.365,9.365,0,0,0-5.045,1.317,8.413,8.413,0,0,0-3.242,3.777,13.832,13.832,0,0,0-1.122,5.776v43.966H858.891v-44.112a13.03,13.03,0,0,0-1.169-5.7,8.541,8.541,0,0,0-3.315-3.729,9.461,9.461,0,0,0-4.972-1.292,9.144,9.144,0,0,0-5,1.341,8.688,8.688,0,0,0-3.265,3.826,13.731,13.731,0,0,0-1.145,5.8v43.868H813.951Z" transform="translate(590 470.948)"/>
      <path id="패스_43" data-name="패스 43" d="M952.968,1221.015a28.6,28.6,0,0,1-12.478-8.676,22.865,22.865,0,0,1-4.971-12.844h25.2a6.933,6.933,0,0,0,1.949,3.973,9.255,9.255,0,0,0,4.095,2.242,22.053,22.053,0,0,0,5.9.707q5.85,0,9.213-2.827t3.363-9.213v-12.819h-.829l-.2.487a16.356,16.356,0,0,1-4.46,6.093,21.144,21.144,0,0,1-7.165,3.948,29.049,29.049,0,0,1-9.285,1.414,29.35,29.35,0,0,1-15.037-3.9,26.777,26.777,0,0,1-10.6-12.065q-3.9-8.163-3.9-20.545,0-12.819,4.093-21.47t10.749-12.772a27.122,27.122,0,0,1,14.549-4.118,23.54,23.54,0,0,1,9.116,1.682,20.629,20.629,0,0,1,6.824,4.484,25.128,25.128,0,0,1,4.581,6.36l.585,1.463h.585v-13.014h26.029v74.82a26.636,26.636,0,0,1-4.826,16.036,29.847,29.847,0,0,1-13.623,10.163,55.6,55.6,0,0,1-20.545,3.485,52.567,52.567,0,0,1-18.913-3.095m26.492-48.3a13.517,13.517,0,0,0,4.289-6.142,27.393,27.393,0,0,0,1.487-9.578,29.039,29.039,0,0,0-1.487-9.8,13.488,13.488,0,0,0-4.289-6.312,10.56,10.56,0,0,0-6.653-2.169,10.173,10.173,0,0,0-6.58,2.193,13.906,13.906,0,0,0-4.217,6.313,28.82,28.82,0,0,0-1.487,9.772,27.763,27.763,0,0,0,1.487,9.652,13.519,13.519,0,0,0,4.192,6.117,10.381,10.381,0,0,0,6.6,2.12,10.554,10.554,0,0,0,6.653-2.169" transform="translate(590 470.948)"/>
      <rect id="사각형_9" data-name="사각형 9" width="26.077" height="74.869" transform="translate(1605.629 1590.552)"/>
    </g>
  </g>
</svg>
