<svg xmlns="http://www.w3.org/2000/svg" width="689.366" height="185.216" viewBox="0 0 689.366 185.216">
  <g id="그룹_25" data-name="그룹 25" transform="translate(-976.239 -1509.842)">
    <path id="패스_36" data-name="패스 36" d="M1065.76,1073.853c-9.625-22.5-27.942-27.77-45.893-19.293-8.112,3.83-22.427,14.77-15.268,34.142,4.76,12.881,19.828,18.683,32.507,13.41a17.408,17.408,0,0,0,9.388-22.755,12.186,12.186,0,0,0-15.93-6.571,8.529,8.529,0,0,0-4.6,11.15" transform="translate(590 470.948)" fill="none" stroke="#ffb03e" stroke-linecap="round" stroke-width="15"/>
    <path id="패스_37" data-name="패스 37" d="M513.332,1075.016a63.74,63.74,0,0,0-26.968-26.855q-17.549-9.266-41.326-9.267h-58.8v155.58h59.254q23.626,0,41.061-9.344a64.234,64.234,0,0,0,26.816-26.854q9.381-17.509,9.382-41.592t-9.42-41.668m-36.046,67.117q-4.293,9.42-12.535,13.483t-20.777,4.065H427.185v-85.994h15.726q13.065,0,21.5,3.988t12.8,13.484q4.367,9.5,4.368,25.525t-4.292,25.449" transform="translate(590 470.948)" fill="#ffb03e"/>
    <path id="패스_38" data-name="패스 38" d="M540.773,1191.014a32.563,32.563,0,0,1-13.33-13.551,46.711,46.711,0,0,1,0-40.456,32.562,32.562,0,0,1,13.33-13.551q8.726-4.826,20.618-4.825t20.6,4.825a32.608,32.608,0,0,1,13.307,13.551,46.721,46.721,0,0,1,0,40.456,32.609,32.609,0,0,1-13.307,13.551q-8.7,4.824-20.6,4.826t-20.618-4.826m27.053-16.89a15.033,15.033,0,0,0,4.046-6.75,38.317,38.317,0,0,0,0-20.619,15.039,15.039,0,0,0-4.046-6.75,9.091,9.091,0,0,0-6.288-2.364,9.7,9.7,0,0,0-6.483,2.315,14.412,14.412,0,0,0-4.167,6.727,38.042,38.042,0,0,0,0,20.714,14.748,14.748,0,0,0,4.167,6.727,9.575,9.575,0,0,0,6.483,2.364,9.086,9.086,0,0,0,6.288-2.364" transform="translate(590 470.948)"/>
    <path id="패스_39" data-name="패스 39" d="M621.985,1191.014a32.572,32.572,0,0,1-13.331-13.551,46.72,46.72,0,0,1,0-40.456,32.571,32.571,0,0,1,13.331-13.551q8.726-4.826,20.618-4.825t20.595,4.825a32.608,32.608,0,0,1,13.307,13.551,46.72,46.72,0,0,1,0,40.456,32.609,32.609,0,0,1-13.307,13.551q-8.7,4.824-20.595,4.826t-20.618-4.826m27.053-16.89a15.042,15.042,0,0,0,4.046-6.75,38.316,38.316,0,0,0,0-20.619,15.047,15.047,0,0,0-4.046-6.75,9.091,9.091,0,0,0-6.288-2.364,9.7,9.7,0,0,0-6.483,2.315,14.412,14.412,0,0,0-4.167,6.727,38.017,38.017,0,0,0,0,20.714,14.748,14.748,0,0,0,4.167,6.727,9.574,9.574,0,0,0,6.483,2.364,9.086,9.086,0,0,0,6.288-2.364" transform="translate(590 470.948)"/>
    <path id="패스_40" data-name="패스 40" d="M686.038,1119.6h25.3v14.087h.78a24.341,24.341,0,0,1,3.8-8.482,15.68,15.68,0,0,1,5.85-4.971,17.062,17.062,0,0,1,7.457-1.609,26.546,26.546,0,0,1,6.775.926v22.373a26.372,26.372,0,0,0-4.631-.95,40.5,40.5,0,0,0-5.166-.366,14.666,14.666,0,0,0-7.214,1.779,12.694,12.694,0,0,0-5.045,5.094,15.291,15.291,0,0,0-1.828,7.507v39.481H686.038Z" transform="translate(590 470.948)"/>
    <path id="패스_41" data-name="패스 41" d="M777.489,1164.107q-4.68.244-7.409.536a9.021,9.021,0,0,0-5.557,2.486,7.084,7.084,0,0,0-2.1,5.216,6.365,6.365,0,0,0,1.048,3.68,6.277,6.277,0,0,0,2.925,2.291,11.331,11.331,0,0,0,4.265.756,13.894,13.894,0,0,0,6.166-1.39,11.455,11.455,0,0,0,4.557-3.9,10.2,10.2,0,0,0,1.706-5.873l-.2-24.664a5.989,5.989,0,0,0-1.072-3.559,6.473,6.473,0,0,0-2.974-2.267,11.991,11.991,0,0,0-4.435-.755,12.979,12.979,0,0,0-4.728.78,7.824,7.824,0,0,0-3.29,2.364,7.487,7.487,0,0,0-1.584,3.875H740.737a25.271,25.271,0,0,1,4.509-12.7,26.629,26.629,0,0,1,11.454-9.042q7.482-3.315,18.108-3.315a47.65,47.65,0,0,1,17.962,3.144,27.328,27.328,0,0,1,11.99,8.773,20.725,20.725,0,0,1,4.216,12.748v51.179h-24.42v-10.528h-.585a20.643,20.643,0,0,1-12.55,10.479,30.689,30.689,0,0,1-9.14,1.268,31.414,31.414,0,0,1-12.746-2.413,18.837,18.837,0,0,1-8.579-7.336,22.464,22.464,0,0,1-3.095-12.186q0-11.648,7.555-17.328t20.082-6.458q2.778-.146,7.385-.342t8.018-.34l3.07-.1.1,14.623q-1.9.048-6.58.292" transform="translate(590 470.948)"/>
    <path id="패스_42" data-name="패스 42" d="M813.951,1119.6h24.761v14.087h.78a21.458,21.458,0,0,1,7.993-11.04,22.439,22.439,0,0,1,13.357-4.022,24.174,24.174,0,0,1,9.6,1.876,18.8,18.8,0,0,1,7.214,5.289,17,17,0,0,1,3.656,7.9h.781a19.388,19.388,0,0,1,4.581-7.945,21.6,21.6,0,0,1,7.9-5.289,27.386,27.386,0,0,1,10.139-1.828,25.244,25.244,0,0,1,12.576,3.095,21.073,21.073,0,0,1,8.506,8.871,28.651,28.651,0,0,1,3,13.38v50.5H902.761v-44.015q0-5.069-2.584-7.945a8.847,8.847,0,0,0-6.921-2.876,9.365,9.365,0,0,0-5.045,1.317,8.413,8.413,0,0,0-3.242,3.777,13.832,13.832,0,0,0-1.122,5.776v43.966H858.891v-44.112a13.03,13.03,0,0,0-1.169-5.7,8.541,8.541,0,0,0-3.315-3.729,9.461,9.461,0,0,0-4.972-1.292,9.144,9.144,0,0,0-5,1.341,8.688,8.688,0,0,0-3.265,3.826,13.731,13.731,0,0,0-1.145,5.8v43.868H813.951Z" transform="translate(590 470.948)"/>
    <path id="패스_43" data-name="패스 43" d="M952.968,1221.015a28.6,28.6,0,0,1-12.478-8.676,22.865,22.865,0,0,1-4.971-12.844h25.2a6.933,6.933,0,0,0,1.949,3.973,9.255,9.255,0,0,0,4.095,2.242,22.053,22.053,0,0,0,5.9.707q5.85,0,9.213-2.827t3.363-9.213v-12.819h-.829l-.2.487a16.356,16.356,0,0,1-4.46,6.093,21.144,21.144,0,0,1-7.165,3.948,29.049,29.049,0,0,1-9.285,1.414,29.35,29.35,0,0,1-15.037-3.9,26.777,26.777,0,0,1-10.6-12.065q-3.9-8.163-3.9-20.545,0-12.819,4.093-21.47t10.749-12.772a27.122,27.122,0,0,1,14.549-4.118,23.54,23.54,0,0,1,9.116,1.682,20.629,20.629,0,0,1,6.824,4.484,25.128,25.128,0,0,1,4.581,6.36l.585,1.463h.585v-13.014h26.029v74.82a26.636,26.636,0,0,1-4.826,16.036,29.847,29.847,0,0,1-13.623,10.163,55.6,55.6,0,0,1-20.545,3.485,52.567,52.567,0,0,1-18.913-3.095m26.492-48.3a13.517,13.517,0,0,0,4.289-6.142,27.393,27.393,0,0,0,1.487-9.578,29.039,29.039,0,0,0-1.487-9.8,13.488,13.488,0,0,0-4.289-6.312,10.56,10.56,0,0,0-6.653-2.169,10.173,10.173,0,0,0-6.58,2.193,13.906,13.906,0,0,0-4.217,6.313,28.82,28.82,0,0,0-1.487,9.772,27.763,27.763,0,0,0,1.487,9.652,13.519,13.519,0,0,0,4.192,6.117,10.381,10.381,0,0,0,6.6,2.12,10.554,10.554,0,0,0,6.653-2.169" transform="translate(590 470.948)"/>
    <rect id="사각형_9" data-name="사각형 9" width="26.077" height="74.869" transform="translate(1605.629 1590.552)"/>
  </g>
</svg>
